# xmcd
#
# Track frame offsets:
# 183
# 13890
# 27723
# 38893
# 53825
# 65075
# 77203
# 88108
# 100773
# 111883
# 123453
# 135040
#
# Disc length: 1953 seconds
#
#
# Revision: 0
# Processed by: cddbd v1.5.1PL2 Copyright (c) Steve Scherf et al.
# Submitted via: FreeRIP 2.60 
#
DISCID=a1079f0c
DTITLE=Varios - Giants of Country Vol 6
DYEAR=1980
DGENRE=Country
TTITLE0=Lynn Anderson-Rose Garden
TTITLE1=Jimmy Dean-Big Bad John
TTITLE2=Gene Pitney-If I Didn't Have a Dime
TTITLE3=Jeannie C Riley-Harper Valley PTA
TTITLE4=Don Gibson-Oh Lonesome Me
TTITLE5=Johnny Paycheck-Take This Job And Shove It
TTITLE6=Roy Orbison-Only The Lonely
TTITLE7=Claude King-Wolverton Mountain
TTITLE8=Duane Eddy-Peter Gunn
TTITLE9=Donna Fargo-Happiest Girl In The Whole USA
TTITLE10=Leon Ashley-Laura, What's He Got That I Ain't Got
TTITLE11=Sammi Smith-Help Me Make It Through The Night
EXTD=
EXTT0=
EXTT1=
EXTT2=
EXTT3=
EXTT4=
EXTT5=
EXTT6=
EXTT7=
EXTT8=
EXTT9=
EXTT10=
EXTT11=
PLAYORDER=
